<svg width="21" height="24" viewBox="0 0 21 24" fill="none" xmlns="http://www.w3.org/2000/svg">
<path d="M14.4863 -7.05128e-06C13.125 0.0918678 11.6682 0.901868 10.7663 1.99499C9.97691 2.95687 9.31503 4.36874 9.56628 5.83499C9.34128 5.76562 9.13691 5.75812 8.89128 5.66999C8.22191 5.43187 7.45691 5.17499 6.50628 5.17499C4.61816 5.17499 2.68503 6.29812 1.46628 8.17499C-0.307467 10.9012 0.0487823 15.6994 2.74128 19.8C3.21566 20.52 3.76878 21.3056 4.45128 21.93C5.13378 22.5544 5.95878 23.0306 6.92628 23.04C7.75316 23.0494 8.32878 22.7737 8.84628 22.545C9.36378 22.3162 9.84566 22.1137 10.7513 22.11C10.7569 22.11 10.7607 22.11 10.7663 22.11C11.6682 22.1025 12.135 22.3012 12.6413 22.53C13.1475 22.7587 13.7175 23.0475 14.5463 23.04C15.5325 23.0325 16.3707 22.4925 17.0663 21.825C17.7619 21.1575 18.3338 20.3381 18.8063 19.62C19.4832 18.5887 19.755 18.0262 20.2763 16.875C20.3307 16.755 20.3325 16.6162 20.28 16.4944C20.2294 16.3725 20.13 16.2769 20.0063 16.23C18.3 15.585 17.3269 14.0756 17.1863 12.48C17.0457 10.8844 17.7207 9.24187 19.4213 8.30999C19.5469 8.24249 19.635 8.12437 19.665 7.98562C19.6932 7.84687 19.6594 7.70062 19.5713 7.58999C18.3507 6.07312 16.6332 5.17499 14.9513 5.17499C13.8788 5.17499 13.0913 5.42812 12.4463 5.66999C12.3394 5.71124 12.2607 5.70749 12.1613 5.74499C12.8157 5.39999 13.3932 4.92187 13.8263 4.36499C14.6138 3.35437 15.2213 1.91624 14.9963 0.404993C14.9588 0.157493 14.7357 -0.0187571 14.4863 -7.05128e-06ZM13.9763 1.13999C13.9444 2.10937 13.6125 3.05812 13.0613 3.76499C12.4838 4.50749 11.5125 5.02124 10.5713 5.17499C10.5882 4.24312 10.9557 3.27749 11.5163 2.59499C12.105 1.88249 13.08 1.36874 13.9763 1.13999ZM6.50628 6.13499C6.92628 6.13499 7.90128 6.33562 8.56128 6.56999C9.22128 6.80437 9.91691 7.07999 10.7363 7.07999C11.5369 7.07999 12.1707 6.80249 12.7913 6.56999C13.4119 6.33749 14.0307 6.13499 14.9513 6.13499C16.1532 6.13499 17.4525 6.75937 18.4763 7.84499C16.8375 9.00187 16.0707 10.8056 16.2263 12.555C16.3819 14.3231 17.4469 16.0012 19.1963 16.875C19.1938 16.8805 19.1913 16.8859 19.1888 16.8913C18.8142 17.7072 18.5645 18.2512 18.0113 19.095C17.5519 19.7944 17.0063 20.5594 16.4063 21.135C15.8063 21.7106 15.1707 22.0744 14.5313 22.08C13.9144 22.0856 13.5638 21.9019 13.0313 21.66C12.4988 21.4181 11.8107 21.1406 10.7513 21.15C9.69378 21.1556 8.99628 21.4219 8.45628 21.66C7.91628 21.8981 7.56191 22.0856 6.94128 22.08C6.28503 22.0744 5.67566 21.7556 5.09628 21.225C4.51691 20.6944 3.99378 19.9706 3.53628 19.275C1.01628 15.435 0.813782 10.9237 2.26128 8.69999C3.32253 7.06687 6.08628 6.13499 6.50628 6.13499Z" fill="black"/>
<path d="M6.50628 6.13499C6.92628 6.13499 7.90128 6.33562 8.56128 6.56999C9.22128 6.80437 9.91691 7.07999 10.7363 7.07999C11.5369 7.07999 12.1707 6.80249 12.7913 6.56999C13.4119 6.33749 14.0307 6.13499 14.9513 6.13499C16.1532 6.13499 17.4525 6.75937 18.4763 7.84499C16.8375 9.00187 16.0707 10.8056 16.2263 12.555C16.3819 14.3231 17.4469 16.0012 19.1963 16.875L19.1888 16.8913C18.8142 17.7072 18.5645 18.2512 18.0113 19.095C17.5519 19.7944 17.0063 20.5594 16.4063 21.135C15.8063 21.7106 15.1707 22.0744 14.5313 22.08C13.9144 22.0856 13.5638 21.9019 13.0313 21.66C12.4988 21.4181 11.8107 21.1406 10.7513 21.15C9.69378 21.1556 8.99628 21.4219 8.45628 21.66C7.91628 21.8981 7.56191 22.0856 6.94128 22.08C6.28503 22.0744 5.67566 21.7556 5.09628 21.225C4.51691 20.6944 3.99378 19.9706 3.53628 19.275C1.01628 15.435 0.813782 10.9237 2.26128 8.69999C3.32253 7.06687 6.08628 6.13499 6.50628 6.13499Z" fill="black"/>
<path d="M13.9763 1.13999C13.9444 2.10937 13.6125 3.05812 13.0613 3.76499C12.4838 4.50749 11.5125 5.02124 10.5713 5.17499C10.5882 4.24312 10.9557 3.27749 11.5163 2.59499C12.105 1.88249 13.08 1.36874 13.9763 1.13999Z" fill="black"/>
</svg>
